<svg width="318" height="40" viewBox="0 0 318 40" fill="none" xmlns="http://www.w3.org/2000/svg">
<g clip-path="url(#clip0_420_16)">
<path d="M45.0485 1.53232L48.1584 5.40838L48.7218 6.10697L49.15 6.64781C48.7218 7.14359 48.3838 7.75204 48.0457 8.36049L36.4176 37.9943C35.8091 39.2337 34.6598 39.9999 33.4204 39.9999H32.564C31.0091 39.9999 29.8147 39.2563 28.7781 37.9267L26.2091 34.7041L25.5781 33.8929C25.8485 33.5098 26.0964 33.0591 26.3218 32.6309L38.1753 2.52387C38.8288 1.19429 40.0683 0.247813 41.3753 0.0224609H42.1415C42.1415 0.0224609 43.7415 0.180207 45.0485 1.53232Z" fill="#2144A5"/>
<path d="M60.012 2.0507C58.9528 0.766197 57.488 0 55.9331 0H42.8176C42.5922 0 42.3669 0 42.1641 0C43.2458 0.157746 44.4176 0.766197 45.0711 1.50986L48.181 5.38592L48.7443 6.08451L49.1725 6.62535L59.8993 20.0113L48.2035 34.7493L47.6852 35.4028L45.0035 38.7155C44.3725 39.5042 43.4936 39.9775 42.5697 39.9775H57.0598C57.9838 39.9775 58.8852 39.5268 59.5162 38.738L74.4345 19.9662L60.012 2.0507Z" fill="#3A6FFF"/>
<path d="M28.7549 37.9268L26.1859 34.7042L25.5549 33.893L16.1577 22.062L14.5127 19.9887L28.8676 2.0507L29.5211 1.26197C30.1521 0.473239 31.031 0 31.9549 0H17.4648C16.5408 0 15.662 0.450704 15.031 1.2169L0 19.9662L14.2423 37.9042C15.2789 39.2113 16.7662 39.9775 18.3211 39.9775H32.5183C30.9634 39.9775 29.769 39.2338 28.7324 37.9268H28.7549Z" fill="#3A6FFF"/>
<path fill-rule="evenodd" clip-rule="evenodd" d="M200.946 10.1411C199.864 10.1411 198.94 10.3664 198.197 10.7946C197.453 11.2228 196.867 11.7411 196.439 12.3495C196.011 12.958 195.695 13.4988 195.56 14.0171L195.29 14.896V10.0059H188.574V33.3298H195.493V20.7552C195.493 19.7636 195.673 18.8847 196.011 18.1411C196.371 17.3974 196.912 16.8115 197.656 16.3833C198.4 15.9777 199.346 15.7523 200.495 15.7523C200.991 15.7523 201.487 15.7749 201.938 15.8199C202.388 15.865 202.726 15.9326 202.974 16.0228V10.3214C202.749 10.2537 202.478 10.2087 202.163 10.1636C201.847 10.1411 201.442 10.1185 200.969 10.1185L200.946 10.1411Z" fill="#3A6FFF"/>
<path fill-rule="evenodd" clip-rule="evenodd" d="M315.11 10.1411C314.028 10.1411 313.104 10.3664 312.361 10.7946C311.617 11.2228 311.031 11.7411 310.603 12.3495C310.175 12.958 309.859 13.4988 309.724 14.0171L309.454 14.896V10.0059H302.738V33.3298H309.657V20.7552C309.657 19.7636 309.837 18.8847 310.175 18.1411C310.535 17.3974 311.076 16.8115 311.82 16.3833C312.564 15.9777 313.51 15.7523 314.659 15.7523C315.155 15.7523 315.651 15.7749 316.102 15.8199C316.552 15.865 316.89 15.9326 317.138 16.0228V10.3214C316.913 10.2537 316.643 10.2087 316.327 10.1636C316.012 10.1411 315.606 10.1185 315.133 10.1185L315.11 10.1411Z" fill="#3A6FFF"/>
<path fill-rule="evenodd" clip-rule="evenodd" d="M107.358 17.0819C106.163 16.4509 104.811 15.9776 103.324 15.7072L99.1099 14.8283C97.893 14.5804 96.9465 14.2199 96.2479 13.7466C95.5718 13.2734 95.2113 12.6424 95.2113 11.8537C95.2113 10.9297 95.5944 10.141 96.338 9.53256C97.0817 8.92411 98.1634 8.60861 99.5606 8.60861C100.53 8.60861 101.363 8.76636 102.039 9.08185C102.715 9.39735 103.234 9.80298 103.617 10.2988C104 10.7945 104.225 11.3354 104.315 11.9213H110.783C110.715 10.4114 110.265 9.01425 109.431 7.70721C108.575 6.40016 107.335 5.34101 105.69 4.55228C104.045 3.74101 102.017 3.35791 99.6056 3.35791C97.3746 3.35791 95.3915 3.71847 93.7014 4.46214C92.0113 5.18326 90.6817 6.24242 89.7352 7.59453C88.7887 8.94664 88.293 10.5466 88.293 12.4171C88.293 14.0171 88.6084 15.3692 89.262 16.4959C89.9155 17.6002 90.7944 18.5016 91.9662 19.1776C93.1155 19.8537 94.4676 20.3495 96.0225 20.665L100.124 21.5664C101.544 21.8593 102.603 22.2424 103.324 22.7382C104.045 23.2114 104.406 23.7973 104.406 24.7213C104.406 25.3523 104.225 25.9382 103.887 26.434C103.549 26.9297 103.031 27.3354 102.332 27.6283C101.634 27.9213 100.732 28.0565 99.6507 28.0565C98.862 28.0565 98.1408 27.9664 97.5324 27.7861C96.9014 27.6058 96.3606 27.3579 95.9099 27.0424C95.4592 26.7269 95.0986 26.3438 94.8282 25.9157C94.5577 25.4875 94.4 25.0368 94.3549 24.5861H87.707C87.7521 25.7128 88 26.8171 88.4507 27.8762C88.9014 28.9354 89.6 29.8819 90.5239 30.7157C91.4704 31.5495 92.6648 32.203 94.107 32.6988C95.5718 33.172 97.307 33.4199 99.3577 33.4199C101.972 33.4199 104.158 33.0143 105.915 32.2255C107.673 31.4368 109.025 30.3326 109.927 28.9128C110.828 27.4931 111.279 25.8706 111.279 24.0452C111.279 22.2199 110.918 20.9354 110.22 19.8086C109.521 18.6819 108.552 17.803 107.358 17.172V17.0819Z" fill="#3A6FFF"/>
<path fill-rule="evenodd" clip-rule="evenodd" d="M128.79 23.5721C128.79 24.4509 128.609 25.2171 128.249 25.8481C127.888 26.4791 127.415 26.9523 126.807 27.2904C126.221 27.6284 125.567 27.7861 124.869 27.7861C124.305 27.7861 123.764 27.6735 123.224 27.4706C122.683 27.2453 122.232 26.8622 121.894 26.2763C121.533 25.6904 121.376 24.8566 121.376 23.7749V10.0059H114.66V25.4875C114.66 27.2904 114.976 28.7552 115.584 29.927C116.193 31.0763 117.071 31.9326 118.198 32.496C119.325 33.0594 120.609 33.3298 122.097 33.3298C123.426 33.3298 124.531 33.1044 125.432 32.6763C126.333 32.2256 127.055 31.7073 127.573 31.0537C128.114 30.4228 128.542 29.8143 128.722 29.2284L128.993 28.4622V33.3523H135.505V10.0059H128.812V23.5721H128.79Z" fill="#3A6FFF"/>
<path fill-rule="evenodd" clip-rule="evenodd" d="M157.409 11.2228C156.192 10.4115 154.704 10.0059 152.969 10.0059C152.18 10.0059 151.437 10.096 150.761 10.2763C150.085 10.4566 149.454 10.7045 148.913 11.0199C148.349 11.3354 147.876 11.7411 147.471 12.2143C147.065 12.6875 146.704 13.2284 146.479 13.8143L146.186 14.6932V10.0059H139.516V37.7918H146.254V28.7101L146.547 29.4312C146.862 30.2425 147.38 31.0763 147.989 31.6397C148.597 32.203 149.318 32.6312 150.152 32.9242C150.986 33.2171 151.933 33.3749 152.924 33.3749C154.659 33.3749 156.147 32.9692 157.364 32.158C158.603 31.3467 159.549 29.9946 160.203 28.4622C160.856 26.9298 161.194 25.0819 161.194 22.9411V20.4397C161.194 18.2988 160.879 16.3157 160.203 14.7833C159.549 13.2509 158.603 12.0791 157.386 11.2678L157.409 11.2228ZM154.276 22.4904C154.276 23.6397 154.118 24.6312 153.803 25.4425C153.487 26.2537 153.037 26.8847 152.451 27.3129C151.865 27.7411 151.144 27.9664 150.31 27.9664C149.476 27.9664 148.755 27.7636 148.169 27.3354C147.561 26.9073 147.087 26.3214 146.749 25.5552C146.411 24.789 146.254 23.8875 146.254 22.8735V20.6199C146.254 19.5157 146.411 18.5918 146.749 17.803C147.065 17.0143 147.538 16.4284 148.147 16.0002C148.755 15.5721 149.476 15.3692 150.287 15.3692C151.099 15.3692 151.865 15.5946 152.473 16.0228C153.082 16.4509 153.533 17.0594 153.825 17.8706C154.141 18.6819 154.299 19.6735 154.299 20.8228V22.4904H154.276Z" fill="#3A6FFF"/>
<path fill-rule="evenodd" clip-rule="evenodd" d="M257.375 32.0902C258.614 32.9015 260.102 33.3296 261.837 33.3296C262.626 33.3296 263.369 33.2395 264.045 33.0592C264.721 32.8789 265.352 32.631 265.916 32.3155C266.479 32 266.952 31.5944 267.358 31.0986C267.764 30.6254 268.147 30.0846 268.372 29.4761L268.665 28.5972V33.3296H275.358V2.2085H268.597V14.5353L268.304 13.8141C267.989 13.0029 267.471 12.1691 266.862 11.6057C266.254 11.0423 265.533 10.6141 264.676 10.3212C263.82 10.0282 262.896 9.87047 261.882 9.87047C260.147 9.87047 258.659 10.2761 257.42 11.1099C256.181 11.9212 255.234 13.2733 254.558 14.8282C253.882 16.3831 253.566 18.2085 253.566 20.3719V22.8958C253.566 25.0592 253.904 27.0423 254.558 28.5747C255.211 30.1071 256.158 31.2789 257.397 32.1127L257.375 32.0902ZM260.53 20.755C260.53 19.6057 260.688 18.6141 261.003 17.7803C261.319 16.9691 261.769 16.3381 262.355 15.8874C262.941 15.4592 263.662 15.2338 264.519 15.2338C265.375 15.2338 266.073 15.4367 266.682 15.8648C267.29 16.293 267.764 16.8789 268.102 17.6451C268.44 18.4113 268.62 19.3127 268.62 20.3493V22.6254C268.62 23.7296 268.462 24.6761 268.124 25.4648C267.809 26.2536 267.335 26.862 266.727 27.2677C266.119 27.6958 265.397 27.8986 264.564 27.8986C263.73 27.8986 262.964 27.6733 262.378 27.2451C261.769 26.8169 261.319 26.186 261.003 25.3747C260.688 24.5634 260.53 23.5719 260.53 22.4V20.7324V20.755Z" fill="#3A6FFF"/>
<path fill-rule="evenodd" clip-rule="evenodd" d="M219.021 26.6364C218.773 27.1097 218.39 27.4702 217.894 27.7407C217.421 28.0111 216.79 28.1238 216.001 28.1238C214.784 28.1238 213.837 27.628 213.139 26.659C212.463 25.69 212.125 24.3153 212.125 22.5801V20.4618C212.125 18.8392 212.463 17.5547 213.139 16.6083C213.815 15.6618 214.761 15.166 216.001 15.166C216.744 15.166 217.353 15.3238 217.849 15.6392C218.344 15.9547 218.705 16.3604 218.975 16.8787C219.246 17.3745 219.381 17.9153 219.426 18.4561H225.488C225.488 16.8336 225.082 15.3688 224.294 14.1069C223.505 12.8449 222.401 11.8308 220.981 11.0871C219.539 10.3435 217.826 9.98291 215.798 9.98291C213.77 9.98291 211.832 10.4111 210.277 11.2674C208.722 12.1238 207.505 13.3407 206.671 14.8956C205.815 16.4505 205.387 18.2984 205.387 20.4167V22.6477C205.387 24.8562 205.792 26.7716 206.626 28.3491C207.46 29.9266 208.654 31.166 210.187 32.0223C211.742 32.8787 213.59 33.3069 215.753 33.3069C217.916 33.3069 219.606 32.9463 221.071 32.2477C222.513 31.5491 223.618 30.5576 224.361 29.3181C225.105 28.0787 225.511 26.6139 225.533 24.9688H219.471C219.404 25.6223 219.246 26.1632 218.998 26.6364H219.021Z" fill="#3A6FFF"/>
<path fill-rule="evenodd" clip-rule="evenodd" d="M245.23 11.2904C243.63 10.434 241.759 10.0059 239.573 10.0059C237.387 10.0059 235.517 10.4566 233.917 11.3354C232.317 12.2368 231.077 13.4763 230.221 15.0537C229.342 16.6537 228.914 18.5016 228.914 20.5974V22.558C228.914 24.8566 229.342 26.7946 230.199 28.3946C231.055 29.9946 232.294 31.2115 233.894 32.0453C235.494 32.8791 237.387 33.3073 239.573 33.3073C241.759 33.3073 243.63 32.8791 245.23 32.0453C246.83 31.2115 248.046 29.9946 248.925 28.3721C249.804 26.7721 250.232 24.8115 250.232 22.5354V20.5523C250.232 18.4115 249.804 16.5636 248.925 14.9636C248.046 13.3636 246.83 12.1467 245.23 11.2678V11.2904ZM243.427 22.6706C243.427 23.6171 243.314 24.5185 243.066 25.3749C242.818 26.2312 242.413 26.9298 241.849 27.4481C241.286 27.989 240.52 28.2594 239.573 28.2594C238.627 28.2594 237.861 27.989 237.297 27.4481C236.734 26.9073 236.328 26.2087 236.058 25.3523C235.81 24.496 235.675 23.5946 235.675 22.6481V20.5749C235.675 19.6059 235.81 18.7045 236.08 17.8481C236.351 16.9918 236.756 16.3157 237.342 15.7749C237.906 15.2566 238.649 14.9861 239.573 14.9861C240.497 14.9861 241.241 15.2566 241.804 15.7749C242.368 16.2932 242.773 16.9692 243.044 17.8256C243.314 18.6819 243.427 19.5833 243.427 20.5749V22.6481V22.6706Z" fill="#3A6FFF"/>
<path fill-rule="evenodd" clip-rule="evenodd" d="M180.306 11.2678C178.751 10.434 176.971 10.0059 174.92 10.0059C173.004 10.0059 171.269 10.389 169.692 11.1777C168.114 11.9664 166.852 13.1383 165.928 14.6932C165.004 16.2706 164.531 18.2087 164.531 20.5523V22.6932C164.531 25.0143 164.982 26.9749 165.861 28.5523C166.762 30.1298 168.002 31.3242 169.602 32.1129C171.202 32.9016 173.072 33.3073 175.19 33.3073C176.926 33.3073 178.571 33.0819 179.788 32.6087C181.027 32.1354 182.019 31.527 182.807 30.7833C183.596 30.0397 184.182 29.2284 184.565 28.3721C184.948 27.5157 185.174 26.7045 185.219 25.9383H179.066C179.021 26.4115 178.819 26.8171 178.481 27.1777C178.143 27.5383 177.714 27.8312 177.174 28.034C176.633 28.2368 175.866 28.3495 175.19 28.3495C173.996 28.3495 173.004 27.9664 172.238 27.1777C171.45 26.389 171.066 25.3523 171.066 24.0678V23.3242H185.241V20.5523C185.241 18.3664 184.813 16.4735 183.934 14.896C183.055 13.3185 181.861 12.1016 180.306 11.2678V11.2678ZM171.066 19.1326C171.066 18.2763 171.224 17.5326 171.562 16.8791C171.9 16.2256 172.351 15.7298 172.937 15.3692C173.523 15.0087 174.199 14.8284 174.965 14.8284C175.731 14.8284 176.407 15.0087 176.993 15.3692C177.579 15.7298 178.007 16.2481 178.323 16.8791C178.638 17.5326 178.796 18.7045 178.796 19.5608H171.066" fill="#3A6FFF"/>
<path fill-rule="evenodd" clip-rule="evenodd" d="M294.466 11.2678C292.911 10.434 291.131 10.0059 289.08 10.0059C287.165 10.0059 285.429 10.389 283.852 11.1777C282.275 11.9664 281.013 13.1383 280.089 14.6932C279.165 16.2706 278.691 18.2087 278.691 20.5523V22.6932C278.691 25.0143 279.142 26.9749 280.021 28.5523C280.922 30.1298 282.162 31.3242 283.762 32.1129C285.362 32.9016 287.232 33.3073 289.351 33.3073C291.086 33.3073 292.708 33.0819 293.948 32.6087C295.187 32.1354 296.179 31.527 296.967 30.7833C297.756 30.0397 298.342 29.2284 298.725 28.3721C299.108 27.5157 299.334 26.7045 299.379 25.9383H293.227C293.182 26.4115 292.979 26.8171 292.641 27.1777C292.303 27.5383 291.875 27.8312 291.334 28.034C290.793 28.2368 290.027 28.3495 289.351 28.3495C288.156 28.3495 287.165 27.9664 286.398 27.1777C285.61 26.389 285.227 25.3523 285.227 24.0678V23.3242H299.401V20.5523C299.401 18.3664 298.973 16.4735 298.094 14.896C297.215 13.3185 296.021 12.1016 294.466 11.2678V11.2678ZM285.227 19.1326C285.227 18.2763 285.384 17.5326 285.722 16.8791C286.06 16.2256 286.511 15.7298 287.097 15.3692C287.683 15.0087 288.359 14.8284 289.125 14.8284C289.891 14.8284 290.567 15.0087 291.153 15.3692C291.739 15.7298 292.167 16.2481 292.483 16.8791C292.798 17.5326 292.956 18.7045 292.956 19.5608H285.227" fill="#3A6FFF"/>
</g>
<defs>
<clipPath id="clip0_420_16">
<rect width="317.138" height="40" fill="white"/>
</clipPath>
</defs>
</svg>
