<svg width="113" height="61" viewBox="0 0 113 61" fill="none" xmlns="http://www.w3.org/2000/svg">
<path d="M68.4287 2.31816L73.1402 8.18866L73.9968 9.24686L74.6519 10.0531C73.9968 10.809 73.4677 11.7412 72.989 12.6734L55.3019 57.6722C54.3697 59.5618 52.6312 60.7208 50.7416 60.746H49.4314C47.0883 60.746 45.2742 59.6122 43.6869 57.6218L39.7816 52.7339L38.8242 51.5245C39.2525 50.945 39.6053 50.2647 39.958 49.6097L57.9978 3.82988C58.9804 1.81425 60.8701 0.378124 62.8353 0.0253906H64.0195C64.0195 0.0253906 66.4634 0.277343 68.4287 2.31816Z" fill="#2144A5"/>
<path d="M91.1296 3.12421C89.5423 1.15898 87.3 0 84.9568 0H65.0273C64.6998 0 64.3471 0 64.0195 0C65.6572 0.226757 67.4461 1.15898 68.4287 2.29277L73.1402 8.16327L73.9969 9.22147L74.6519 10.0277L90.9281 30.3603L73.1402 52.7337L72.3592 53.7415L68.2775 58.7806C67.3201 59.9647 65.9848 60.6954 64.5738 60.6954H86.5945C88.0054 60.6954 89.366 60.0151 90.3234 58.8057L112.974 30.3099L91.1296 3.12421Z" fill="#3A6FFF"/>
<path d="M43.6634 57.6216L39.7581 52.7337L38.8007 51.5243L24.515 33.5601L22.0207 30.4107L43.865 3.12421L44.8476 1.91484C45.805 0.730663 47.1403 0 48.5513 0H26.5306C25.1197 0 23.7843 0.680272 22.8269 1.86445L0 30.3351L21.6427 57.5712C23.23 59.5616 25.4724 60.6954 27.8408 60.6954H49.4079C47.0648 60.6954 45.2507 59.5868 43.6634 57.5712V57.6216Z" fill="#3A6FFF"/>
</svg>
